<?xml version="1.0" standalone="no"?>
<!DOCTYPE svg PUBLIC "-//W3C//DTD SVG 20010904//EN"
 "http://www.w3.org/TR/2001/REC-SVG-20010904/DTD/svg10.dtd">
<svg version="1.0" xmlns="http://www.w3.org/2000/svg"
 width="225.000000pt" height="225.000000pt" viewBox="0 0 225.000000 225.000000"
 preserveAspectRatio="xMidYMid meet">
<metadata>
Created by potrace 1.14, written by Peter Selinger 2001-2017
</metadata>
<g transform="translate(0.000000,225.000000) scale(0.100000,-0.100000)"
fill="#FBA16C" stroke="none">
<path d="M933 2076 c-136 -26 -254 -76 -350 -147 -60 -45 -83 -82 -83 -134 0
-20 -12 -57 -29 -88 -55 -99 -76 -187 -76 -332 0 -71 3 -153 8 -182 l8 -52
-56 -36 c-77 -51 -131 -116 -176 -210 -123 -257 -23 -559 228 -693 113 -60
283 -82 323 -42 26 26 26 11 -10 525 -16 237 -30 438 -30 448 0 10 -11 29 -25
43 -22 22 -30 24 -74 18 l-49 -6 -9 48 c-13 79 -8 223 11 289 27 95 64 162 94
170 14 3 43 21 66 39 94 75 190 110 343 126 212 22 421 -28 536 -130 18 -16
45 -32 59 -35 30 -8 68 -71 94 -160 19 -65 25 -240 11 -309 l-8 -38 -50 6
c-44 6 -52 4 -74 -18 -16 -17 -25 -36 -25 -58 0 -18 -14 -224 -30 -458 -16
-234 -30 -437 -30 -452 0 -44 35 -68 99 -68 328 1 583 313 517 630 -30 142
-114 268 -227 341 -45 28 -50 35 -44 58 3 14 9 85 12 156 6 160 -10 246 -67
362 -27 54 -40 95 -40 121 0 50 -29 87 -112 143 -72 49 -170 91 -269 114 -98
24 -366 30 -466 11z"/>
<path d="M774 1143 c-33 -23 -33 -46 -3 -479 33 -471 33 -474 93 -474 43 0 66
26 66 76 0 21 -11 217 -26 434 -28 432 -30 442 -90 448 -16 1 -34 -1 -40 -5z"/>
<path d="M1424 1129 c-16 -18 -22 -70 -48 -459 -29 -427 -29 -440 -11 -460 11
-12 31 -20 50 -20 64 0 63 -4 95 461 16 233 30 432 30 442 0 49 -80 75 -116
36z"/>
</g>
</svg>
